OpenSim_Sub01_EMGStiffKnee_GRF.mot
version=1
nRows=51
nColumns=19
inDegrees=no
endheader
time	lFx	lFy	lFz	lCOPx	lCOPy	lCOPz	rFx	rFy	rFz	rCOPx	rCOPy	rCOPz	lMx	lMy	lMz	rMx	rMy	rMz
13.91000000	18.25632977	609.32744271	51.34492893	0.95582947	0	-0.64000505	0.03030806	-0.34774481	0.01237322	0.00000332	0	-0.00000119	0	-2.20294082	0	0	-0.00000111	0.00000000
13.92000000	20.58071134	607.63011725	51.54290752	0.94890284	0	-0.63987929	-0.02123174	-0.31733943	0.02254136	-0.00000034	0	0.00000001	0	-2.38428661	0	0	-0.00000743	0.00000000
13.93000000	22.88305333	607.12267101	51.64932125	0.94179693	0	-0.63958132	-0.06102294	-0.26064481	0.02918322	-0.00001354	0	0.00000451	0	-2.50832990	0	0	-0.00001861	0.00000000
13.94000000	25.25164355	607.84672345	51.49784904	0.93475916	0	-0.63915489	-0.07269852	-0.27545661	-0.00022759	-0.00004032	0	0.00001385	0	-2.55731520	0	0	-0.00002875	-0.00000000
13.95000000	27.74488564	609.60707846	51.04467854	0.92789968	0	-0.63867480	-0.07649211	-0.40173959	0.03006081	-0.00007216	0	0.00002535	0	-2.52620969	0	0	-0.00001731	-0.00000000
13.96000000	30.48736169	611.92540063	50.35987991	0.92116200	0	-0.63820338	-0.06250514	-0.56218498	0.05087988	-0.00006792	0	0.00002504	0	-2.44085978	0	0	0.00005609	-0.00000000
13.97000000	33.60520032	614.29678239	49.54102406	0.91436165	0	-0.63778630	-0.05136564	-0.63485770	0.02832847	0.00006584	0	-0.00001950	0	-2.34694661	0	0	0.00023722	0.00000000
13.98000000	37.03098462	616.49135226	48.73417164	0.90749865	0	-0.63744692	-0.06611695	-0.56736595	0.05420542	0.00045895	0	-0.00015462	0	-2.24293903	0	0	0.00051291	0.00000000
13.99000000	40.44568858	618.43276673	48.11107855	0.90060802	0	-0.63719313	-0.10457167	-0.41399738	0.07858973	0.00115420	0	-0.00039901	0	-2.13265383	0	0	0.00066942	0.00000000
14.00000000	43.71922662	619.85700635	47.73896124	0.89366061	0	-0.63697300	-0.15111818	-0.24302050	0.03135404	0.00179028	0	-0.00063422	0	-2.02235501	0	0	0.00010278	0.00000000
14.01000000	46.88784223	620.67515935	47.60700804	0.88662062	0	-0.63673615	-0.19715649	-0.10467501	-0.01611527	0.00109963	0	-0.00042699	0	-1.94035156	0	0	-0.00222397	0.00000000
14.02000000	49.97288251	620.82657078	47.54264935	0.87969138	0	-0.63645762	-0.23035330	-0.16165052	-0.02311492	-0.00342492	0	0.00109877	0	-1.88706181	0	0	-0.00719256	0.00000000
14.03000000	52.84253096	620.38413249	47.42624943	0.87301996	0	-0.63615440	-0.39151675	-0.66939298	0.01832950	-0.01464604	0	0.00498009	0	-1.85502285	0	0	-0.01356802	-0.00000000
14.04000000	55.50251225	619.41136139	47.20895071	0.86643831	0	-0.63582544	-1.11680940	-1.68390119	0.06347408	-0.03181332	0	0.01106699	0	-1.81792350	0	0	-0.01422936	-0.00000000
14.05000000	58.07815072	617.82193320	46.88704061	0.85969097	0	-0.63549264	-2.94033972	-2.42608102	0.05466339	-0.04177655	0	0.01496850	0	-1.76147369	0	0	0.00792265	-0.00000000
14.06000000	60.58935736	615.25283007	46.39350955	0.85270289	0	-0.63514724	-5.89535264	-0.25084613	0.07627633	-0.00715640	0	0.00382186	0	-1.65734046	0	0	0.07819035	0.00000000
14.07000000	62.77916262	610.90233505	45.47580729	0.84569248	0	-0.63473725	-8.69246058	10.16795867	0.18411965	0.13652126	0	-0.04506821	0	-1.43193430	0	0	0.20913180	-0.00000000
14.08000000	64.45963156	603.49880272	43.83338124	0.83881004	0	-0.63423316	-8.46906439	36.70015245	0.60402672	0.44473603	0	-0.15234952	0	-1.04989800	0	0	0.34321696	-0.00000000
14.09000000	65.65942635	591.32783563	41.16068659	0.83202140	0	-0.63365475	-3.05598101	86.69534114	1.82408667	0.84696174	0	-0.29624440	0	-0.51102080	0	0	0.27359139	0
14.10000000	66.44347264	572.59024430	37.35028785	0.82516825	0	-0.63302015	2.40208624	157.97471182	3.62711640	1.13320504	0	-0.40115677	0	0.12981709	0	0	0.02224548	0.00000000
14.11000000	66.66232633	546.33168594	32.53652557	0.81823618	0	-0.63238865	-0.94727125	236.18195502	5.06581819	1.25500610	0	-0.44723994	0	0.83416340	0	0	-0.20694314	-0.00000000
14.12000000	65.89716564	512.66351472	27.16875915	0.81130671	0	-0.63177889	-12.30948829	306.82058731	5.24148065	1.27764718	0	-0.45603210	0	1.50620212	0	0	-0.28510281	-0.00000000
14.13000000	63.72056064	472.41911405	21.98254877	0.80447547	0	-0.63117912	-26.66961150	363.56066010	2.36682879	1.26552523	0	-0.45020397	0	1.98527364	0	0	-0.37951563	0.00000000
14.14000000	59.73818217	426.54808691	17.57470492	0.79806038	0	-0.63082435	-41.46968003	406.88417845	-4.16436335	1.25148181	0	-0.44240877	0	2.15024473	0	0	-0.54937675	0
14.15000000	53.65702549	375.73291775	14.19656730	0.79299924	0	-0.63142281	-54.75766222	438.72259796	-12.45927304	1.24460176	0	-0.43707413	0	1.90046531	0	0	-0.88172736	0.00000000
14.16000000	45.22039548	320.79817148	11.85306033	0.79070959	0	-0.63401319	-64.83508471	462.87772603	-20.38977975	1.24352284	0	-0.43437740	0	1.16724002	0	0	-1.28676322	-0.00000000
14.17000000	34.53990207	263.19035716	10.33090514	0.79125929	0	-0.63879503	-72.79180863	485.43235925	-27.13220430	1.24445470	0	-0.43330539	0	0.01165355	0	0	-1.82461329	0.00000000
14.18000000	22.27442145	205.61700153	9.28678759	0.79144111	0	-0.64268951	-78.84909688	510.14164871	-31.69417809	1.24500469	0	-0.43292557	0	-1.41716874	0	0	-2.36138306	0
14.19000000	9.70796346	151.46066728	8.14148199	0.78032798	0	-0.63565686	-82.58558980	536.62393826	-33.79752249	1.24437741	0	-0.43269382	0	-2.75732692	0	0	-2.85990977	-0.00000000
14.20000000	-1.39187076	104.03470467	6.55741533	0.73562752	0	-0.59766570	-84.51572328	562.29455996	-34.66295381	1.24256385	0	-0.43241452	0	-3.58437767	0	0	-3.30364987	0
14.21000000	-9.14882855	65.85692995	4.58761208	0.62503853	0	-0.50300545	-85.16370967	584.74199235	-35.90589881	1.23998625	0	-0.43207035	0	-3.50329427	0	0	-3.81061804	0.00000000
14.22000000	-11.83003675	37.23691660	2.29816506	0.43373654	0	-0.34448017	-84.37744528	602.99848801	-38.15572155	1.23703383	0	-0.43167721	0	-2.60433798	0	0	-4.45554684	0.00000000
14.23000000	-9.14291913	16.71350033	-0.44872524	0.21273329	0	-0.16657154	-82.06316672	617.37801571	-41.23029263	1.23380959	0	-0.43124597	0	-1.33265537	0	0	-5.15574992	0
14.24000000	-4.33345587	3.77557799	-3.20713240	0.05760282	0	-0.04380433	-78.59650846	627.91719729	-44.62590305	1.23034425	0	-0.43077152	0	-0.38979164	0	0	-5.78814212	-0.00000000
14.25000000	-0.93318011	-2.01894634	-4.83986221	-0.00963484	0	0.00859207	-74.65973016	633.75576651	-47.63215077	1.22679851	0	-0.43024969	0	0.03700966	0	0	-6.33361973	0
14.26000000	0.39795401	-3.32151559	-5.38300211	-0.02296340	0	0.01848325	-70.78724447	634.16268242	-49.68487485	1.22314524	0	-0.42972797	0	0.13265160	0	0	-6.78490392	0
14.27000000	0.44549109	-2.83174514	-5.66872412	-0.01598337	0	0.01264429	-67.24720740	629.47778194	-50.67479877	1.21943341	0	-0.42925806	0	0.09724814	0	0	-7.05735975	-0.00000000
14.28000000	0.02808222	-2.04956837	-5.72304576	-0.00683765	0	0.00532556	-64.09857607	620.72582330	-50.67727090	1.21585018	0	-0.42885576	0	0.04346579	0	0	-7.19088713	0
14.29000000	-0.37882873	-1.50588408	-5.81254635	-0.00130069	0	0.00096150	-61.25100820	609.00742533	-49.94297618	1.21229827	0	-0.42858466	0	0.00941690	0	0	-7.22890686	0
14.30000000	-0.64853688	-1.25497191	-5.88961061	0.00075399	0	-0.00062884	-58.35620254	595.76947784	-48.88856518	1.20843905	0	-0.42854870	0	-0.00386636	0	0	-7.17255959	0.00000000
14.31000000	-0.78352655	-1.07480845	-5.93079521	0.00095125	0	-0.00076084	-55.24889831	582.81552663	-47.67198328	1.20422001	0	-0.42877825	0	-0.00560238	0	0	-7.05889585	-0.00000000
14.32000000	-0.81728560	-0.91561369	-6.00382872	0.00056852	0	-0.00044792	-52.02428022	571.89911284	-46.22201939	1.19963708	0	-0.42922011	0	-0.00349973	0	0	-6.95313912	0.00000000
14.33000000	-0.78866243	-0.81644188	-5.95751480	0.00020775	0	-0.00016068	-48.77692059	564.46987509	-44.63510565	1.19466488	0	-0.42981406	0	-0.00134572	0	0	-6.81476869	0.00000000
14.34000000	-0.68073610	-0.77727838	-5.85825515	0.00001766	0	-0.00001149	-45.80611321	561.52061857	-42.95583453	1.18929135	0	-0.43042281	0	-0.00016262	0	0	-6.57953300	0.00000000
14.35000000	-0.50632650	-0.77830527	-5.69940073	-0.00004054	0	0.00003310	-43.51793320	562.94143267	-41.17386769	1.18362898	0	-0.43093911	0	0.00022371	0	0	-6.32511995	-0.00000000
14.36000000	-0.30275144	-0.77414451	-5.53009868	-0.00003736	0	0.00002974	-42.24883310	567.73979014	-39.61273493	1.17798787	0	-0.43139503	0	0.00022335	0	0	-6.09872388	0.00000000
14.37000000	-0.06497230	-0.78830212	-5.41049751	-0.00001945	0	0.00001526	-41.97646230	574.86526418	-38.59773846	1.17253753	0	-0.43177972	0	0.00012118	0	0	-5.86160241	-0.00000000
14.38000000	0.22725475	-0.80200366	-5.28653673	-0.00000584	0	0.00000447	-42.47295751	583.40230201	-38.21228260	1.16733411	0	-0.43205867	0	0.00003885	0	0	-5.63913821	-0.00000000
14.39000000	0.56053539	-0.84178924	-5.14822814	0.00000042	0	-0.00000042	-43.16092535	592.32461352	-38.42330886	1.16221547	0	-0.43229053	0	-0.00000062	0	0	-5.42046996	0
14.40000000	0.91051027	-0.96339235	-4.98300310	0.00000188	0	-0.00000152	-43.68350308	600.93680021	-39.15729134	1.15697114	0	-0.43254355	0	-0.00001074	0	0	-5.17340274	0
14.41000000	1.26484238	-1.19035363	-4.80384632	0.00000140	0	-0.00000111	-43.96914110	608.76497782	-40.00561659	1.15138393	0	-0.43281696	0	-0.00000850	0	0	-4.93068134	0.00000000
